<?xml version="1.0" encoding="utf-8"?>
<svg version="1.1" x="0px" y="0px" viewBox="0 0 1000 1000" enable-background="new 0 0 1000 1000" xmlns="http://www.w3.org/2000/svg">
  <g transform="matrix(0, -0.999999, 0.999999, 0, -0.100048, 999.899902)">
    <path d="M 21.7 644.901 C 21.1 643.101 20.6 641.301 20 639.501 L 20.9 639.201 C 20.8 638.001 20.7 636.701 20.7 635.501 C 20.7 608.301 42.7 586.201 70 586.201 C 88.6 586.201 104.8 596.501 113.2 611.801 L 114.4 611.401 C 126.2 651.401 144.4 689.101 168.3 723.401 C 191.9 757.301 220.6 787.201 253.6 812.201 C 322 864.101 403.7 891.501 489.9 891.501 C 594.5 891.501 692.8 850.801 766.7 776.801 C 840.6 702.901 881.4 604.501 881.4 500.001 C 881.4 395.501 840.7 297.101 766.7 223.201 C 692.7 149.301 594.5 108.601 489.9 108.601 C 398.9 108.601 312.5 139.701 243.5 195.801 L 344.9 298.401 C 362.3 316.001 356.3 330.201 331.6 330.201 L 86.9 329.701 C 71.4 329.701 59 317.101 59.1 301.701 L 60.5 55.701 C 60.6 31.001 74.9 25.201 92.2 42.801 L 174 125.501 C 261.6 51.301 372.8 10.101 489.9 10.101 C 556 10.101 620.2 23.101 680.6 48.601 C 739 73.301 791.4 108.601 836.3 153.601 C 881.3 198.601 916.6 251.001 941.3 309.301 C 966.9 369.701 979.8 433.901 979.8 500.001 C 979.8 566.101 966.8 630.301 941.3 690.701 C 916.6 749.101 881.3 801.501 836.3 846.401 C 791.3 891.401 738.9 926.701 680.6 951.401 C 620.2 977.101 556.1 990.101 489.9 990.101 C 435.6 990.101 382.2 981.301 331.2 963.801 C 281.9 946.901 235.8 922.401 194.1 890.801 C 152.9 859.601 117.1 822.201 87.5 779.901 C 61 741.601 40.1 700.101 25.3 656.101 C 23.7 652.601 22.5 648.801 21.7 644.901 L 21.7 644.901 Z" style="fill: rgb(145, 145, 145);"/>
  </g>
</svg>