<?xml version="1.0" encoding="utf-8"?>
<svg version="1.1" x="0px" y="0px" viewBox="0 0 1000 1000" enable-background="new 0 0 1000 1000" xmlns="http://www.w3.org/2000/svg">
  <g transform="matrix(0, -0.999999, 0.999999, 0, -0.100048, 999.899902)">
    <path d="M 21.7 355.301 C 21.1 357.101 20.6 358.901 20 360.701 L 20.9 361.001 C 20.8 362.201 20.7 363.501 20.7 364.701 C 20.7 391.901 42.7 414.001 70 414.001 C 88.6 414.001 104.8 403.701 113.2 388.401 L 114.4 388.801 C 126.2 348.801 144.4 311.101 168.3 276.801 C 191.9 242.901 220.6 213.001 253.6 188.001 C 322 136.101 403.7 108.701 489.9 108.701 C 594.5 108.701 692.8 149.401 766.7 223.401 C 840.6 297.301 881.4 395.701 881.4 500.201 C 881.4 604.701 840.7 703.101 766.7 777.001 C 692.7 850.901 594.5 891.601 489.9 891.601 C 398.9 891.601 312.5 860.501 243.5 804.401 L 344.9 701.801 C 362.3 684.201 356.3 670.001 331.6 670.001 L 86.9 670.501 C 71.4 670.501 59 683.101 59.1 698.501 L 60.5 944.501 C 60.6 969.201 74.9 975.001 92.2 957.401 L 174 874.701 C 261.6 948.901 372.8 990.101 489.9 990.101 C 556 990.101 620.2 977.101 680.6 951.601 C 739 926.901 791.4 891.601 836.3 846.601 C 881.3 801.601 916.6 749.201 941.3 690.901 C 966.9 630.501 979.8 566.301 979.8 500.201 C 979.8 434.101 966.8 369.901 941.3 309.501 C 916.6 251.101 881.3 198.701 836.3 153.801 C 791.3 108.801 738.9 73.501 680.6 48.801 C 620.2 23.101 556.1 10.101 489.9 10.101 C 435.6 10.101 382.2 18.901 331.2 36.401 C 281.9 53.301 235.8 77.801 194.1 109.401 C 152.9 140.601 117.1 178.001 87.5 220.301 C 61 258.601 40.1 300.101 25.3 344.101 C 23.7 347.601 22.5 351.401 21.7 355.301 L 21.7 355.301 Z" style="fill: rgb(57, 57, 57);"/>
  </g>
</svg>